<svg width="10" height="10" viewBox="0 0 10 10" fill="none" xmlns="http://www.w3.org/2000/svg">
<path d="M5.25364 8.33051C5.09711 8.23838 4.90294 8.23838 4.74641 8.33051L2.85933 9.44116C2.48914 9.65905 2.03465 9.3395 2.11441 8.91742L2.55011 6.6118C2.58127 6.44694 2.52766 6.27744 2.40737 6.16048L0.746467 4.54549C0.445776 4.25312 0.616993 3.74274 1.03317 3.69086L3.23483 3.41638C3.40964 3.39459 3.56008 3.28241 3.63085 3.12109L4.54214 1.04377C4.71711 0.644917 5.28293 0.64492 5.4579 1.04377L6.36917 3.12108C6.43994 3.28241 6.59038 3.39459 6.76519 3.41638L8.96684 3.69086C9.38302 3.74274 9.55423 4.25311 9.25355 4.54549L7.59266 6.16048C7.47238 6.27744 7.41877 6.44694 7.44992 6.61179L7.88562 8.91742C7.96538 9.3395 7.51089 9.65905 7.1407 9.44116L5.25364 8.33051Z" fill="#FFDB00"/>
</svg>
