<svg width="40" height="40" viewBox="0 0 40 40" fill="none" xmlns="http://www.w3.org/2000/svg">
<rect x="0.5" y="0.5" width="39" height="39" rx="19.5" stroke="#FFDB00"/>
<path d="M30.4302 15.0603C30.446 15.2823 30.446 15.5044 30.446 15.7265C30.446 22.5 25.2906 30.3045 15.868 30.3045C12.9651 30.3045 10.2684 29.4638 8 28.0044C8.41245 28.052 8.80898 28.0679 9.2373 28.0679C11.6326 28.0679 13.8375 27.2589 15.5983 25.8788C13.3458 25.8312 11.4581 24.356 10.8077 22.3255C11.125 22.373 11.4422 22.4048 11.7754 22.4048C12.2354 22.4048 12.6955 22.3413 13.1237 22.2303C10.776 21.7544 9.01519 19.6922 9.01519 17.2018V17.1383C9.69727 17.519 10.4905 17.757 11.3312 17.7887C9.95107 16.8686 9.04692 15.2982 9.04692 13.5215C9.04692 12.5698 9.30068 11.6973 9.74487 10.9359C12.2671 14.045 16.0583 16.0754 20.3096 16.2976C20.2303 15.9168 20.1827 15.5203 20.1827 15.1237C20.1827 12.3001 22.4669 10 25.3064 10C26.7816 10 28.1141 10.6187 29.05 11.618C30.208 11.3959 31.3184 10.9676 32.302 10.3807C31.9212 11.5705 31.1122 12.5698 30.0494 13.2043C31.0805 13.0933 32.0799 12.8077 32.9999 12.4112C32.302 13.4264 31.4295 14.3305 30.4302 15.0603Z" fill="#FFDB00"/>
</svg>
