<svg width="40" height="40" viewBox="0 0 40 40" fill="none" xmlns="http://www.w3.org/2000/svg">
<rect x="0.5" y="0.5" width="39" height="39" rx="19.5" stroke="#FFDB00"/>
<path d="M29.4407 18.5675C29.5362 19.0723 29.6044 19.5771 29.6044 20.2319C29.6044 25.9482 25.7708 30 20 30C14.4748 30 10 25.5253 10 20C10 14.4747 14.4748 10 20 10C22.7013 10 24.9522 10.9822 26.6985 12.6194L23.9836 15.2251C23.2469 14.5157 21.9509 13.6835 20 13.6835C16.5894 13.6835 13.8062 16.5075 13.8062 20C13.8062 23.4925 16.5894 26.3165 20 26.3165C23.9563 26.3165 25.4434 23.4652 25.6753 22.0054H20V18.5674L29.4407 18.5675Z" fill="#FFDB00"/>
</svg>
