<svg width="40" height="40" viewBox="0 0 40 40" fill="none" xmlns="http://www.w3.org/2000/svg">
<rect x="0.5" y="0.5" width="39" height="39" rx="19.5" stroke="#FFDB00"/>
<path d="M31.2084 14.6078C30.9358 13.5813 30.1326 12.7729 29.1128 12.4985C27.2642 12 19.8519 12 19.8519 12C19.8519 12 12.4395 12 10.591 12.4985C9.57114 12.7729 8.76793 13.5813 8.49531 14.6078C8 16.4683 8 20.3502 8 20.3502C8 20.3502 8 24.232 8.49531 26.0926C8.76793 27.1191 9.57114 27.8938 10.591 28.1681C12.4395 28.6667 19.8519 28.6667 19.8519 28.6667C19.8519 28.6667 27.2642 28.6667 29.1128 28.1681C30.1326 27.8938 30.9358 27.1191 31.2084 26.0926C31.7037 24.232 31.7037 20.3502 31.7037 20.3502C31.7037 20.3502 31.7037 16.4683 31.2084 14.6078ZM17.4276 23.8746V16.8257L23.6229 20.3503L17.4276 23.8746Z" fill="#FFDB00"/>
</svg>
