<svg width="72" height="73" viewBox="0 0 72 73" fill="none" xmlns="http://www.w3.org/2000/svg">
<path d="M32.8257 1.07253C33.718 3.17593 33.9092 6.36288 33.2719 8.14758C32.8894 9.10367 32.4432 10.6971 32.252 11.6532C31.6784 14.0753 30.9135 13.3742 29.32 8.97619C28.109 5.78923 25.4957 1.90114 24.4758 1.90114C24.2846 1.90114 24.7308 2.85723 25.4319 4.06827C26.4518 5.66175 26.7705 7.25523 26.7705 10.4422C26.7705 14.9677 26.1968 15.6051 24.4121 12.928C22.5637 10.1872 18.1019 5.72549 17.1458 5.72549C16.6997 5.72549 17.0821 6.49036 18.1019 7.57393C19.058 8.59375 20.2053 10.8884 20.7152 12.8005C22.3087 18.792 21.99 19.047 17.6558 15.2864C14.9787 12.928 10.3895 10.4422 9.81583 11.0158C9.68836 11.1433 10.5807 11.7807 11.8555 12.4818C13.449 13.3105 14.66 14.7765 15.9985 17.326C17.0184 19.3657 17.847 21.1504 17.847 21.3416C17.847 22.1065 15.8073 21.5328 12.4291 19.7481C10.262 18.6008 7.83992 17.8359 6.43766 17.8359L4.14305 17.8997L7.26627 19.1107C8.92348 19.7481 10.8357 20.9592 11.3456 21.7878C11.9192 22.6164 13.0665 23.8912 13.8314 24.7198C15.8711 26.7594 14.5325 27.1419 9.4334 25.9946C7.20253 25.4846 4.7167 25.2934 3.82435 25.4846C2.29461 25.8671 2.35835 25.9308 4.46174 26.377C7.07505 26.9506 13.5127 31.1574 13.0028 31.9223C12.8116 32.241 10.6444 32.4959 8.22235 32.4959C5.48157 32.4959 3.05948 32.8784 1.91218 33.452C0.828609 34.0257 0 34.5356 0 34.5993C0 34.6631 1.52974 34.6631 3.31444 34.5356C5.73653 34.4081 7.58496 34.7268 9.75209 35.6829C14.2138 37.6588 13.8951 38.0413 6.24644 39.7622C5.29035 39.9534 3.69687 40.8458 2.74078 41.7381L0.956088 43.3316L3.44192 42.3118C5.60905 41.4832 6.56514 41.4194 9.75209 42.0568C12.6204 42.6305 13.9589 42.6305 15.2974 42.0568C16.9546 41.3557 17.0821 41.1645 16.4447 39.3798C15.4886 36.7027 16.1898 30.775 17.847 27.2693C23.7747 14.5852 40.6019 11.6532 50.2265 21.5965C54.1783 25.6759 55.708 29.3727 55.708 35.0455C55.7718 37.6588 55.3893 40.9733 54.9432 42.3755C53.5409 47.0922 48.1868 52.765 43.6613 54.3585C43.3426 54.486 44.3625 56.0794 46.0834 57.9279C47.7406 59.7763 49.0792 61.4973 49.0792 61.7522C49.0792 62.2621 53.7321 65.0029 54.5607 65.0029C54.8157 65.0029 54.3058 64.2381 53.4134 63.2182C52.5211 62.2621 51.5013 60.2225 51.1188 58.629C50.8001 57.0355 50.2902 55.2508 50.0353 54.6134C49.2704 52.8287 50.7364 53.3387 53.9871 56.1432C56.9191 58.7565 60.2973 60.5412 61.9545 60.5412C62.4007 60.5412 61.6995 59.9038 60.4247 59.1389C58.8313 58.2466 57.4927 56.5894 56.0905 53.9761C55.0069 51.9364 54.242 50.0242 54.4333 49.833C54.6245 49.6418 56.7916 50.4067 59.15 51.4902C61.572 52.6375 64.3766 53.5299 65.3964 53.4661L67.2448 53.4024L65.0777 52.7013C62.5919 51.9364 56.4729 45.8812 57.3015 45.0526C57.6202 44.7339 59.6599 44.9251 62.1457 45.5625C64.8227 46.1999 67.1174 46.4548 68.3921 46.1361L70.4318 45.6262L67.691 45.18C66.1613 44.8613 63.8667 43.7778 62.5281 42.6942C61.1259 41.6744 59.7236 40.782 59.2774 40.782C58.895 40.782 58.64 40.3996 58.7675 39.9534C58.9587 39.5073 60.8709 39.0611 64.1216 38.8699C66.8624 38.6786 69.7307 38.1687 70.4318 37.7226C71.5791 37.0214 71.3879 36.9577 69.0295 37.2764C67.1174 37.5951 65.7151 37.3401 63.6754 36.384C62.2094 35.6192 60.5522 35.0455 60.106 35.0455C58.895 35.0455 59.0862 33.8982 60.4247 33.2608C60.9984 32.9421 62.6556 32.4322 64.0579 32.1772C66.7987 31.7311 70.7505 29.5639 70.7505 28.6079C70.7505 28.2892 69.8581 28.4804 68.7746 29.054C67.1811 29.8189 65.8426 29.9464 62.3369 29.6277C59.4687 29.309 58.0027 28.9266 58.1939 28.4166C58.3214 28.0342 60.1698 26.7594 62.3369 25.6121C64.9502 24.2099 66.6712 22.8076 67.3086 21.4691L68.3921 19.4932L66.2887 21.2141C65.2052 22.1702 63.6754 23.0625 62.9106 23.19C60.106 23.7637 55.4531 24.0186 55.4531 23.6362C55.4531 23.3812 57.174 21.4691 59.2774 19.3019C61.3808 17.1985 63.1018 14.9039 63.1018 14.2665C63.1018 13.2467 62.8468 13.3742 61.6358 14.9039C59.7873 17.1985 52.2661 20.1943 52.2661 18.6008C52.2661 18.0909 52.9673 16.6886 53.9233 15.4776C55.7718 13.0555 57.3653 9.4861 57.3653 7.82888C57.3653 7.12775 56.7916 7.63767 55.8993 9.16741C54.6882 11.3345 49.6528 15.7325 48.3143 15.86C47.4857 15.9238 47.7406 13.4379 48.6967 11.5895C49.9715 9.10367 50.6726 4.06827 49.7803 3.55836C49.3341 3.23966 49.0792 3.74958 49.0792 4.76941C49.0792 5.72549 48.7605 7.00027 48.378 7.7014C47.422 9.54984 42.8965 13.9478 42.4503 13.5017C42.1953 13.3105 42.2591 10.9521 42.4503 8.27506C42.7052 5.0881 42.6415 2.92097 42.1953 2.1561C41.5579 1.13627 41.4942 1.32749 41.4305 3.49462C41.4305 4.96062 40.8568 6.80906 40.0919 7.95636C39.3908 8.97619 38.4985 10.5697 38.1798 11.3983C37.2237 13.7566 36.3313 12.2269 35.6939 7.51019C35.439 5.21558 34.7379 2.60227 34.1005 1.64618C32.8257 -0.265991 32.1245 -0.584686 32.8257 1.07253Z" fill="#FFDB00"/>
<path d="M34.6741 31.8585C30.4673 36.7664 29.4475 37.595 27.7266 37.595C26.388 37.595 24.7946 38.4236 22.3725 40.4632C20.2691 42.1205 16.0623 44.4788 11.9192 46.2635C7.7762 48.1119 5.35411 49.4505 5.86402 49.7054C6.3102 49.9604 8.60481 50.6615 11.0269 51.2989C15.5524 52.4462 15.9986 52.9561 14.1501 54.2946C13.449 54.7408 11.8555 56.0793 10.517 57.2267L8.15863 59.33L9.62463 60.9873C11.983 63.4731 18.4844 67.9348 21.99 69.4008C27.5353 71.6954 35.7577 72.8427 36.5863 71.4405C36.7775 71.1855 37.6061 67.3612 38.4985 63.0269C40.5381 52.3825 42.1954 47.602 45.2548 43.5865C47.1033 41.1006 47.8044 39.5709 47.8044 37.9137C47.8044 36.7026 47.6769 35.6828 47.4857 35.6828C47.3582 35.6828 45.8922 36.3202 44.2987 37.0851C41.048 38.6786 40.4744 38.4873 41.4305 36.0652C41.7492 35.1092 42.0679 32.7508 42.0679 30.9024C42.0679 28.1616 41.8129 27.333 40.8568 26.7593C39.7733 26.1857 38.9447 26.8868 34.6741 31.8585ZM28.0453 42.6941C28.0453 43.459 24.8583 44.7975 24.3484 44.2876C23.9022 43.8414 26.1968 42.1205 27.2804 42.0567C27.6628 42.0567 28.0453 42.3754 28.0453 42.6941Z" fill="white"/>
</svg>
