<svg width="490" height="264" viewBox="0 0 490 264" fill="none" xmlns="http://www.w3.org/2000/svg">
<path d="M300.5 137C300.5 140.431 300.15 142.819 299.52 144.399C298.899 145.955 298.028 146.682 296.966 146.911C295.853 147.15 294.422 146.869 292.651 146.141C290.892 145.419 288.873 144.289 286.613 142.927C285.546 142.284 284.427 141.59 283.26 140.867C279.508 138.541 275.264 135.911 270.681 133.684C264.664 130.759 258.009 128.5 251 128.5C243.998 128.5 236.599 130.755 229.473 133.67C224.938 135.526 220.473 137.667 216.282 139.677C213.9 140.819 211.606 141.919 209.439 142.9C206.433 144.26 203.661 145.396 201.194 146.124C198.721 146.855 196.599 147.162 194.878 146.905C193.185 146.653 191.872 145.857 190.961 144.329C190.033 142.771 189.5 140.412 189.5 137C189.5 123.408 197.967 111.04 209.945 102.044C221.918 93.0526 237.315 87.5 251 87.5C278.338 87.5 300.5 109.662 300.5 137Z" stroke="#D0D0D0"/>
<path d="M281.5 130.061C281.5 132.322 281.269 133.876 280.864 134.891C280.469 135.882 279.932 136.312 279.299 136.449C278.615 136.596 277.71 136.426 276.548 135.949C275.399 135.476 274.074 134.735 272.582 133.835C271.88 133.412 271.143 132.954 270.373 132.477C267.893 130.939 265.079 129.193 262.042 127.716C258.055 125.776 253.631 124.271 248.964 124.271C244.305 124.271 239.392 125.772 234.677 127.703C231.677 128.931 228.717 130.351 225.944 131.682C224.371 132.437 222.859 133.162 221.434 133.808C219.45 134.706 217.627 135.453 216.009 135.932C214.383 136.412 213.01 136.607 211.909 136.443C210.836 136.283 210.015 135.783 209.441 134.82C208.851 133.828 208.5 132.304 208.5 130.061C208.5 121.146 214.051 113.013 221.941 107.083C229.826 101.157 239.964 97.5 248.964 97.5C266.933 97.5 281.5 112.078 281.5 130.061Z" fill="#FFDB00" stroke="#FFDB00"/>
<path d="M329.5 147.04C329.5 152.269 328.969 155.94 327.994 158.39C327.027 160.815 325.648 161.997 323.931 162.367C322.163 162.748 319.931 162.296 317.229 161.183C314.539 160.076 311.461 158.348 308.03 156.277C306.405 155.296 304.702 154.239 302.929 153.138C297.236 149.602 290.811 145.612 283.867 142.231C274.753 137.792 264.692 134.374 254.107 134.374C243.53 134.374 232.337 137.788 221.531 142.218C214.653 145.037 207.89 148.286 201.534 151.34C197.917 153.078 194.431 154.753 191.129 156.25C186.564 158.32 182.344 160.053 178.583 161.166C174.814 162.281 171.551 162.76 168.884 162.361C166.245 161.968 164.18 160.717 162.754 158.319C161.312 155.893 160.5 152.25 160.5 147.04C160.5 126.257 173.42 107.378 191.636 93.6711C209.849 79.9671 233.272 71.5 254.107 71.5C295.745 71.5 329.5 105.32 329.5 147.04Z" stroke="#D0D0D0"/>
<path d="M351.5 157.877C351.5 164.475 350.832 169.123 349.594 172.235C348.366 175.323 346.601 176.852 344.387 177.33C342.122 177.819 339.283 177.236 335.875 175.83C332.479 174.43 328.597 172.247 324.277 169.635C322.229 168.397 320.084 167.063 317.851 165.674C310.685 161.216 302.605 156.19 293.87 151.93C282.406 146.338 269.761 142.036 256.464 142.036C243.175 142.036 229.103 146.334 215.505 151.917C206.849 155.47 198.345 159.563 190.346 163.413C185.791 165.605 181.401 167.718 177.239 169.608C171.49 172.218 166.172 174.407 161.429 175.813C156.678 177.221 152.55 177.83 149.164 177.324C145.808 176.822 143.172 175.225 141.356 172.165C139.523 169.076 138.5 164.456 138.5 157.877C138.5 131.615 154.797 107.778 177.747 90.4809C200.693 73.1872 230.205 62.5 256.464 62.5C308.949 62.5 351.5 105.2 351.5 157.877Z" stroke="#D0D0D0"/>
<path d="M377.5 171.019C377.5 179.215 376.67 185.004 375.123 188.888C373.586 192.749 371.364 194.682 368.563 195.286C365.711 195.901 362.152 195.165 357.91 193.418C353.68 191.676 348.847 188.962 343.477 185.719C340.929 184.181 338.262 182.524 335.485 180.798C326.578 175.266 316.542 169.031 305.692 163.746C291.45 156.808 275.752 151.476 259.25 151.476C242.756 151.476 225.282 156.804 208.384 163.733C197.628 168.143 187.064 173.22 177.124 177.998C171.462 180.72 166.002 183.344 160.825 185.692C153.677 188.933 147.061 191.653 141.156 193.401C135.245 195.151 130.093 195.912 125.859 195.28C121.654 194.652 118.345 192.65 116.067 188.818C113.772 184.957 112.5 179.196 112.5 171.019C112.5 138.368 132.788 108.744 161.332 87.2594C189.871 65.7776 226.58 52.5 259.25 52.5C324.557 52.5 377.5 105.562 377.5 171.019Z" stroke="#D0D0D0"/>
<path d="M405.5 184.815C405.5 194.722 404.495 201.733 402.615 206.445C400.745 211.133 398.033 213.499 394.598 214.239C391.113 214.989 386.781 214.089 381.64 211.976C376.511 209.868 370.656 206.585 364.155 202.666C361.068 200.806 357.838 198.803 354.475 196.717C343.694 190.033 331.552 182.504 318.423 176.12C301.19 167.74 282.204 161.304 262.25 161.304C242.304 161.304 221.167 167.736 200.716 176.106C187.697 181.435 174.916 187.567 162.886 193.339C156.03 196.628 149.419 199.8 143.147 202.639C134.494 206.557 126.479 209.845 119.325 211.959C112.163 214.075 105.909 215 100.761 214.233C95.6416 213.47 91.6073 211.035 88.8325 206.374C86.0408 201.686 84.5 194.704 84.5 184.815C84.5 145.317 109.086 109.494 143.654 83.5221C178.217 57.5532 222.676 41.5 262.25 41.5C341.365 41.5 405.5 105.664 405.5 184.815Z" stroke="#D0D0D0"/>
<path d="M448.5 199.835C448.5 212.367 447.226 221.251 444.835 227.232C442.454 233.188 438.988 236.22 434.581 237.167C430.125 238.124 424.604 236.974 418.083 234.299C411.574 231.629 404.147 227.474 395.909 222.519C391.996 220.165 387.901 217.631 383.639 214.994C369.98 206.542 354.603 197.028 337.974 188.96C316.148 178.37 292.111 170.241 266.857 170.241C241.611 170.241 214.848 178.366 188.94 188.946C172.446 195.682 156.259 203.432 141.019 210.728C132.332 214.888 123.952 218.899 116 222.492C105.034 227.445 94.8717 231.606 85.7972 234.282C76.7158 236.959 68.7691 238.135 62.2176 237.161C55.6946 236.191 50.5461 233.091 47.0082 227.161C43.4533 221.204 41.5 212.348 41.5 199.835C41.5 149.838 72.6862 104.511 116.505 71.6582C160.32 38.8089 216.681 18.5 266.857 18.5C367.177 18.5 448.5 99.6872 448.5 199.835Z" stroke="#D0D0D0"/>
<path d="M489.5 218.202C489.5 233.244 487.97 243.921 485.092 251.115C482.223 258.286 478.037 261.953 472.705 263.098C467.322 264.253 460.667 262.863 452.831 259.651C445.006 256.444 436.081 251.455 426.187 245.508C421.485 242.682 416.566 239.641 411.446 236.476C395.043 226.334 376.582 214.921 356.615 205.241C330.41 192.537 301.559 182.79 271.25 182.79C240.949 182.79 208.822 192.533 177.711 205.228C157.905 213.31 138.47 222.607 120.169 231.362C109.735 236.353 99.6698 241.168 90.1147 245.481C76.9433 251.426 64.7341 256.421 53.8291 259.634C42.9172 262.849 33.3567 264.264 25.4671 263.092C17.6059 261.924 11.3951 258.188 7.12936 251.045C2.84664 243.873 0.5 233.226 0.5 218.202C0.5 158.163 37.9798 103.744 90.6202 64.31C143.256 24.8795 210.965 0.5 271.25 0.5C391.787 0.5 489.5 97.9696 489.5 218.202Z" stroke="#D0D0D0"/>
</svg>
